<?xml version="1.0" encoding="utf-8"?>
<!-- Generator: Adobe Illustrator 18.0.0, SVG Export Plug-In . SVG Version: 6.00 Build 0)  -->
<!DOCTYPE svg PUBLIC "-//W3C//DTD SVG 1.1//EN" "http://www.w3.org/Graphics/SVG/1.1/DTD/svg11.dtd">
<svg version="1.1" id="Слой_1" xmlns="http://www.w3.org/2000/svg" xmlns:xlink="http://www.w3.org/1999/xlink" x="0px" y="0px"
	 viewBox="0 0 595.3 841.9" enable-background="new 0 0 595.3 841.9" xml:space="preserve">
<path fill="#20207F" d="M98.2,117.8c0,0,0,68.5,0,77.2c0,6.3,5.7,8.3,13,8.3s13.5-1.9,13.5-8.4c-0.1-20.1-0.3-77.1-0.3-77.1
	s23.3,0,30.9,0c5.5,0,10.9-2.2,10.9-12c0-8-5.7-11.8-10.9-11.8c-20.2,0-62.3,0.1-88.6,0.1C61,94.2,56,97.8,56,105.5
	c0,8.2,5.1,12.3,10.7,12.3C70.2,117.8,98.2,117.8,98.2,117.8z"/>
<path fill="#20207F" d="M176.1,102.1c0-3.7,3.4-8.1,8.3-8.1c5.8,0,70.5,0.1,81.8,0.1c12.8,0,28.8,7.4,28.8,34.6
	c0,32-22.6,40.6-36.2,40.6c-14.8,0-54.5,0-54.5,0s0,21,0,25.7s-5.5,8.4-13.8,8.4s-13.4-3.1-13.5-8.4
	C176.8,187.8,176.1,124.4,176.1,102.1z M204.3,145.3c0,0,46.6,0,53.8,0c7.1,0,13.6-4.9,13.6-14.3c0-7.4-2.8-13.2-13-13.2
	c-13,0-54.4,0-54.4,0L204.3,145.3L204.3,145.3z"/>
<path fill="#20207F" d="M553.2,194.9c-1.2,7.2-6.3,8.4-14.5,8.4c-8.3,0-14.2-3.6-14.2-8.4c0-4.8-0.4-32.5-0.4-32.5h-30.9
	c0,0-9.6,13.3-14.3,18.9c-2.1,2.6-8,10.2-12.2,14.5c-4.2,4.2-6.3,7.6-13.5,7.4c-1.2,0-11.9-0.3-13.9-6.4
	c-3.2-10.1,15.9-25,20.8-33.9c0.6-1.1,1.9-2.9,0.8-3c-6-0.4-25.6-10.9-25.6-31.4c0-27.2,21-34.5,33.8-34.5c11.4,0,71-0.1,76.8-0.1
	c4.9,0,7.3,4.4,7.3,8.1C553.2,124.4,554.4,187.7,553.2,194.9z M524.1,117.8c0,0-30,0-43,0c-10.2,0-16.4,4.2-16.4,11.6
	c0,9.3,9.2,11.4,11.8,11.4c7.1,0,47.6,0,47.6,0V117.8z"/>
<path fill="#20207F" d="M317.7,182.5c-6.6-6.8-11.5-19.8-11.5-36.6c0-34.7,26.6-59.5,48.8-59.5c24.5,0,40.6,0,47,0
	c3.8,0,6.4,2.3,6.4,4c0,2.6-2.4,4.3-4.2,5.7c-3.8,3-34.6,33.6-39.5,38.6c-0.4,0.4-0.7,0-0.7,0l-0.1-20.3c-21-0.3-31,14.3-31,28
	c0,9.5,2.7,17.3,5.3,19L317.7,182.5z"/>
<path fill="#999999" d="M413.4,107.1c6.6,6.8,11.5,19.8,11.5,36.6c0,34.7-26.6,59.5-48.8,59.5c-24.5,0-40.6,0-47,0
	c-3.8,0-6.4-2.3-6.4-4c0-2.6,2.4-4.3,4.2-5.7c3.8-3,34.6-33.6,39.5-38.6c0.4-0.4,0.7,0,0.7,0l0.1,20.3c21,0.3,31-14.3,31-28
	c0-9.5-2.7-17.3-5.3-19L413.4,107.1z"/>
</svg>
