<?xml version="1.0" encoding="utf-8"?>
<!-- Generator: Adobe Illustrator 19.2.1, SVG Export Plug-In . SVG Version: 6.00 Build 0)  -->
<svg version="1.1" id="Layer_1" xmlns="http://www.w3.org/2000/svg" xmlns:xlink="http://www.w3.org/1999/xlink" x="0px" y="0px"
	 viewBox="0 0 595.3 841.9" style="enable-background:new 0 0 595.3 841.9;" xml:space="preserve">
<style type="text/css">
	.st0{fill:#FFFFFF;}
</style>
<g>
	<path class="st0" d="M290.7,48.3c-133.2,4.9-248.5,121-261.8,271c0,29.1,0,58.1,4.5,82.3l0,0c0,0,0,4.9,0,9.7
		c4.5,19.4,8.9,38.7,17.8,58.1C77.7,541.9,183.5,631,281.9,788.7c8.9,9.7,22.2,9.7,31,0C417,626.2,517.1,541.9,543.7,469.4
		c8.9-19.4,13.3-38.7,17.8-58.1c0-4.9,0-9.7,0-9.7l0,0c4.5-19.4,4.5-38.7,4.5-58.1C574.7,178.9,446.1,43.4,290.7,48.3z M304,508.1
		c-47.6,0.4-119.7-77.4-119.7-159.7S228.7,203.2,304,203.2s119.7,62.9,119.7,145.2S346.5,507.8,304,508.1z"/>
</g>
</svg>
