<svg id="Layer_1" data-name="Layer 1" xmlns="http://www.w3.org/2000/svg" viewBox="0 0 595.38 390.49"><defs><style>.cls-1{fill:#fff;}</style></defs><title>mail</title><path class="cls-1" d="M298.53,67.81c124.5,0,200.69-10.2,255.59-10.2,15.8,0,26.5,0,31.5,15.2,7,9.1-3.5,24.2-10.5,33.4,0,0-127.4,132.8-212.39,179.09-15.5,8.4-40.2,21.8-63.7,21.5-21-.3-21.5-1.4-37.5-7.4-10.5-3-37-19.2-46.4-25.7C140.53,222.9,21.24,105.1,21.24,105.1c-7-9.1-11.3-22-9.7-32.4,1.8-11.2,10.4-15.1,27.9-15.1C39.44,57.61,166.13,67.81,298.53,67.81Zm0,380.29c-108.9,0-255.59-13.4-255.59-13.4v-1s-42-3-42-33.4V145.6c0-12.2,7-12.2,17.5-6,0,0,72.3,59.4,90.1,75.8,10.6,9.7,9.4,23.6,8.7,38.5-2.2,45.2-41.8,107-68.4,125.4-34,23.5-10.8,17.6,1,10.4,49.7-30.5,97.6-109.3,97.6-109.3,7-6,17.8-11,28.3-4.9l39.9,24c10.5,6,24.9,15,36.6,20.9,12,6,29,8.7,46.5,8.4,20.9-.4,44.4-5.8,59.3-14.2l51.9-32.9c10.5-9.1,32.3-11.6,39.3-2.5,0,0,50.8,79.7,91,106.1,23.9,15.8,39.5,10.9,12.3-3.7-34.2-18.4-74.5-93.4-65.2-144,4.1-22,18.4-33.6,26.3-41.9,12-12.6,61.7-56.1,61.7-56.1,14-6,21-3,21,6V403.39s-3.5,32.4-42,32.4C554.22,435.79,402.62,448.09,298.53,448.09Z" transform="translate(-0.94 -57.61)"/></svg>