<svg id="Layer_1" data-name="Layer 1" xmlns="http://www.w3.org/2000/svg" viewBox="0 0 559.06 564.5"><defs><style>.cls-1{fill:#fff;}</style></defs><title>phone</title><path class="cls-1" d="M577.17,490c0,7.68-3.11,15.27-22.57,17.22-4.38.49-12.35,8.17-17.51,12.35-10.41,8.46-26.85,38.81-38.23,53.69-3.31,4.28-23.83,17.61-32.39,20.82-8,3-34.92,5.16-54,1.36s-38.23-7.68-61.08-19.06-53.5-26.75-84-45.81-64.88-49.61-99.31-84c-26.75-26.75-40.85-46.11-56.12-69.06-36.57-42.8-82.58-116.72-92.79-171.87-2.33-12.64,0-24.8,0-32.39s10.21-46,35-68.09c13.13-11.67,45.72-26.75,59-38.23,5-4.38,9.24-28.4,20.13-31.81,3.6-1.17,12.35-4,16.24-.19,3.31,2.92,9,13.81,10.89,18.38l64.88,122.17c3.79,7.68,13.62,23.15,13.62,30.83s-11.87,13.62-32.1,4.86c-7.68-3.31-21.2,5.16-28.4,9.43-5.16,3-18.09,14.59-20.23,20.13-8.95,23.34,2.72,54.47,11.19,68.09,3.79,7.68,43.77,58.75,62.93,77.81s71.3,66.73,96.59,77.13c19.06,7.78,36.18,8.27,51.26.68,12.06-6.13,37.64-18.77,37-39.59-0.19-7.1-6.91-21.2-4.77-27.92,3.31-10.31,10.12-13.62,21.59-13.62,7.68,0,16.54,5.93,20.43,9.73h0l111.27,77.81C569.49,474.78,577.17,482.36,577.17,490Z" transform="translate(-18.11 -33.02)"/></svg>